<svg width="26" height="28" viewBox="0 0 26 28" fill="none" xmlns="http://www.w3.org/2000/svg">
<path d="M15.046 0.337646C22.1824 2.02046 26.0211 7.10641 25.9937 14.6817C25.9786 18.8382 25.991 22.9947 25.991 27.2237C24.2772 27.2237 22.6605 27.2237 20.8733 27.2237C20.8733 26.2083 20.8733 25.2009 20.8733 24.1935C20.873 20.6548 20.9079 17.1158 20.8632 13.5778C20.8123 9.55325 17.846 6.08012 14.1537 5.62701C10.03 5.12095 6.42581 7.58283 5.40546 11.6025C4.38364 15.628 6.28511 19.6815 9.96197 21.2955C10.3423 21.4625 10.7463 21.5708 11.275 21.7531C11.275 19.0353 11.275 16.4634 11.275 13.8138C12.8151 13.8138 14.2511 13.8138 15.7519 13.8138C15.7519 18.2546 15.7519 22.677 15.7518 27.0995C8.01194 28.4231 1.89674 23.6041 0.336891 16.7248C-1.29142 9.54362 3.14881 2.12284 10.0751 0.580689C11.6407 0.23209 13.3107 0.392972 15.046 0.337646Z" fill="black"/>
</svg>
